<svg width="1440" height="1024" viewBox="0 0 1440 1024" fill="none" xmlns="http://www.w3.org/2000/svg">
<g id="restart">
<rect width="1440" height="1024" fill="black"/>
<path id="restart-text" d="M493.051 510.112C491.899 509.76 490.779 509.584 489.691 509.584C487.259 509.584 485.355 510.288 483.979 511.696C482.635 513.072 481.963 514.848 481.963 517.024C481.963 518.912 482.635 520.48 483.979 521.728C485.323 522.976 487.211 523.6 489.643 523.6C490.539 523.6 491.323 523.536 491.995 523.408C492.667 523.248 493.195 523.104 493.579 522.976C493.931 522.848 494.155 522.768 494.251 522.736C494.379 522.704 494.475 522.688 494.539 522.688C494.859 522.688 495.131 522.816 495.355 523.072C495.611 523.296 495.739 523.568 495.739 523.888C495.739 524.432 495.483 524.8 494.971 524.992C494.267 525.28 493.467 525.52 492.571 525.712C491.707 525.904 490.731 526 489.643 526C487.467 526 485.627 525.6 484.123 524.8C482.619 523.968 481.483 522.88 480.715 521.536C479.947 520.16 479.563 518.656 479.563 517.024C479.563 515.136 479.963 513.456 480.763 511.984C481.563 510.48 482.715 509.312 484.219 508.48C485.723 507.616 487.547 507.184 489.691 507.184C491.323 507.184 492.875 507.44 494.347 507.952C494.891 508.144 495.163 508.544 495.163 509.152C495.163 509.44 495.035 509.712 494.779 509.968C494.523 510.192 494.235 510.304 493.915 510.304C493.819 510.304 493.531 510.24 493.051 510.112ZM502.485 500.272C502.485 499.92 502.597 499.632 502.821 499.408C503.077 499.184 503.365 499.072 503.685 499.072C504.037 499.072 504.325 499.184 504.549 499.408C504.773 499.632 504.885 499.92 504.885 500.272V524.8C504.885 525.12 504.773 525.408 504.549 525.664C504.325 525.888 504.037 526 503.685 526C503.365 526 503.077 525.888 502.821 525.664C502.597 525.408 502.485 525.12 502.485 524.8V500.272ZM514.793 497.344C515.337 497.344 515.801 497.568 516.185 498.016C516.569 498.432 516.761 499.008 516.761 499.744C516.761 500.48 516.569 501.04 516.185 501.424C515.801 501.808 515.353 502 514.841 502C514.265 502 513.769 501.808 513.353 501.424C512.969 501.008 512.777 500.448 512.777 499.744C512.777 499.008 512.969 498.432 513.353 498.016C513.737 497.568 514.217 497.344 514.793 497.344ZM513.641 508.384C513.641 508.032 513.753 507.744 513.977 507.52C514.233 507.296 514.521 507.184 514.841 507.184C515.193 507.184 515.481 507.296 515.705 507.52C515.929 507.744 516.041 508.032 516.041 508.384V524.8C516.041 525.12 515.929 525.408 515.705 525.664C515.481 525.888 515.193 526 514.841 526C514.521 526 514.233 525.888 513.977 525.664C513.753 525.408 513.641 525.12 513.641 524.8V508.384ZM536.27 510.112C535.118 509.76 533.998 509.584 532.91 509.584C530.478 509.584 528.574 510.288 527.198 511.696C525.854 513.072 525.182 514.848 525.182 517.024C525.182 518.912 525.854 520.48 527.198 521.728C528.542 522.976 530.43 523.6 532.862 523.6C533.758 523.6 534.542 523.536 535.214 523.408C535.886 523.248 536.414 523.104 536.798 522.976C537.15 522.848 537.374 522.768 537.47 522.736C537.598 522.704 537.694 522.688 537.758 522.688C538.078 522.688 538.35 522.816 538.574 523.072C538.83 523.296 538.958 523.568 538.958 523.888C538.958 524.432 538.702 524.8 538.19 524.992C537.486 525.28 536.686 525.52 535.79 525.712C534.926 525.904 533.95 526 532.862 526C530.686 526 528.846 525.6 527.342 524.8C525.838 523.968 524.702 522.88 523.934 521.536C523.166 520.16 522.782 518.656 522.782 517.024C522.782 515.136 523.182 513.456 523.982 511.984C524.782 510.48 525.934 509.312 527.438 508.48C528.942 507.616 530.766 507.184 532.91 507.184C534.542 507.184 536.094 507.44 537.566 507.952C538.11 508.144 538.382 508.544 538.382 509.152C538.382 509.44 538.254 509.712 537.998 509.968C537.742 510.192 537.454 510.304 537.134 510.304C537.038 510.304 536.75 510.24 536.27 510.112ZM560.296 526C559.848 526 559.528 525.84 559.336 525.52L552.328 515.68L547.816 519.232V524.8C547.816 525.12 547.704 525.408 547.48 525.664C547.256 525.888 546.968 526 546.616 526C546.296 526 546.008 525.888 545.752 525.664C545.528 525.408 545.416 525.12 545.416 524.8V500.272C545.416 499.92 545.528 499.632 545.752 499.408C546.008 499.184 546.296 499.072 546.616 499.072C546.968 499.072 547.256 499.184 547.48 499.408C547.704 499.632 547.816 499.92 547.816 500.272V516.16L558.952 507.424C559.176 507.264 559.4 507.184 559.624 507.184C559.976 507.184 560.264 507.296 560.488 507.52C560.744 507.712 560.872 507.984 560.872 508.336C560.872 508.784 560.712 509.12 560.392 509.344L554.2 514.192L561.256 524.08C561.416 524.304 561.496 524.544 561.496 524.8C561.496 525.12 561.368 525.408 561.112 525.664C560.888 525.888 560.616 526 560.296 526ZM595.328 525.568C594.624 524.832 594.08 523.904 593.696 522.784C592.608 523.808 591.408 524.608 590.096 525.184C588.816 525.728 587.424 526 585.92 526C584.448 526 583.28 525.728 582.416 525.184C581.552 524.64 580.944 523.968 580.592 523.168C580.24 522.368 580.064 521.616 580.064 520.912C580.064 520.144 580.192 519.408 580.448 518.704C580.736 517.968 581.168 517.328 581.744 516.784C582.544 516.048 583.616 515.424 584.96 514.912C586.304 514.4 587.952 514.144 589.904 514.144C590.928 514.144 592.016 514.192 593.168 514.288C593.04 512.848 592.56 511.712 591.728 510.88C590.896 510.016 589.648 509.584 587.984 509.584C587.344 509.584 586.688 509.648 586.016 509.776C585.344 509.872 584.832 509.984 584.48 510.112C584.064 510.272 583.76 510.352 583.568 510.352C583.248 510.352 582.96 510.24 582.704 510.016C582.448 509.76 582.32 509.488 582.32 509.2C582.32 508.592 582.592 508.192 583.136 508C583.68 507.84 584.4 507.664 585.296 507.472C586.224 507.28 587.12 507.184 587.984 507.184C590.608 507.184 592.528 507.904 593.744 509.344C594.992 510.784 595.616 512.656 595.616 514.96V519.328C595.616 520.416 595.728 521.328 595.952 522.064C596.208 522.768 596.576 523.392 597.056 523.936C597.28 524.16 597.392 524.432 597.392 524.752C597.392 525.072 597.264 525.36 597.008 525.616C596.784 525.84 596.512 525.952 596.192 525.952C595.872 525.952 595.584 525.824 595.328 525.568ZM585.92 523.6C587.296 523.6 588.608 523.296 589.856 522.688C591.104 522.048 592.224 521.088 593.216 519.808V516.688C592.032 516.592 590.928 516.544 589.904 516.544C586.864 516.544 584.72 517.168 583.472 518.416C583.088 518.8 582.816 519.2 582.656 519.616C582.528 520.032 582.464 520.464 582.464 520.912C582.464 521.552 582.736 522.16 583.28 522.736C583.856 523.312 584.736 523.6 585.92 523.6ZM618.329 526C618.009 526 617.721 525.888 617.465 525.664C617.241 525.408 617.129 525.12 617.129 524.8V515.2C617.129 513.216 616.745 511.792 615.977 510.928C615.241 510.032 614.233 509.584 612.953 509.584C611.609 509.584 610.329 509.952 609.113 510.688C607.897 511.392 606.777 512.256 605.753 513.28V524.8C605.753 525.12 605.641 525.408 605.417 525.664C605.193 525.888 604.905 526 604.553 526C604.233 526 603.945 525.888 603.689 525.664C603.465 525.408 603.353 525.12 603.353 524.8V508.384C603.353 508.032 603.465 507.744 603.689 507.52C603.945 507.296 604.233 507.184 604.553 507.184C604.905 507.184 605.193 507.296 605.417 507.52C605.641 507.744 605.753 508.032 605.753 508.384V510.112C606.841 509.248 607.977 508.544 609.161 508C610.345 507.456 611.609 507.184 612.953 507.184C614.169 507.184 615.273 507.424 616.265 507.904C617.257 508.384 618.041 509.216 618.617 510.4C619.225 511.552 619.529 513.152 619.529 515.2V524.8C619.529 525.12 619.417 525.408 619.193 525.664C618.969 525.888 618.681 526 618.329 526ZM626.205 534.352C625.917 534.352 625.629 534.24 625.341 534.016C625.085 533.792 624.957 533.52 624.957 533.2C624.957 532.72 625.165 532.352 625.581 532.096C626.925 531.328 628.221 530.4 629.469 529.312C630.717 528.256 631.933 526.768 633.117 524.848C631.901 522.928 630.605 520.704 629.229 518.176C627.885 515.648 626.701 513.024 625.677 510.304C625.421 509.568 625.245 509.088 625.149 508.864C625.085 508.608 625.053 508.416 625.053 508.288C625.053 508.032 625.165 507.776 625.389 507.52C625.613 507.264 625.885 507.136 626.205 507.136C626.461 507.136 626.701 507.216 626.925 507.376C627.149 507.504 627.309 507.696 627.405 507.952C628.525 511.056 629.709 513.808 630.957 516.208C632.205 518.608 633.373 520.704 634.461 522.496C635.229 521.12 635.981 519.616 636.717 517.984C637.485 516.352 638.189 514.688 638.829 512.992C639.501 511.264 640.061 509.616 640.509 508.048C640.669 507.472 641.053 507.184 641.661 507.184C642.013 507.184 642.301 507.312 642.525 507.568C642.749 507.792 642.861 508.064 642.861 508.384C642.861 508.48 642.797 508.72 642.669 509.104C642.573 509.488 642.477 509.824 642.381 510.112C641.933 511.52 641.341 513.136 640.605 514.96C639.869 516.752 639.069 518.576 638.205 520.432C637.373 522.256 636.525 523.904 635.661 525.376C634.253 527.776 632.813 529.616 631.341 530.896C629.869 532.176 628.333 533.28 626.733 534.208C626.605 534.304 626.429 534.352 626.205 534.352ZM669.397 526.192C668.917 526.192 668.565 525.984 668.341 525.568C667.381 523.776 666.373 521.744 665.317 519.472C664.293 517.168 663.269 514.688 662.245 512.032C661.669 513.6 661.013 515.2 660.277 516.832C659.541 518.464 658.805 520.032 658.069 521.536C657.365 523.008 656.725 524.32 656.149 525.472C655.925 525.92 655.573 526.144 655.093 526.144H654.997C654.485 526.144 654.117 525.92 653.893 525.472C652.901 523.392 652.005 521.296 651.205 519.184C650.405 517.072 649.605 514.768 648.805 512.272C648.421 511.056 648.149 510.144 647.989 509.536C647.829 508.928 647.749 508.56 647.749 508.432C647.749 508.112 647.861 507.84 648.085 507.616C648.309 507.36 648.597 507.232 648.949 507.232C649.557 507.232 649.941 507.52 650.101 508.096C650.837 510.72 651.637 513.248 652.501 515.68C653.397 518.112 654.261 520.304 655.093 522.256C655.765 520.912 656.453 519.456 657.157 517.888C657.893 516.32 658.581 514.736 659.221 513.136C659.893 511.536 660.453 510.016 660.901 508.576C660.965 508.32 661.109 508.112 661.333 507.952C661.589 507.792 661.829 507.712 662.053 507.712H662.341C662.597 507.712 662.837 507.792 663.061 507.952C663.285 508.08 663.445 508.272 663.541 508.528C664.469 511.152 665.429 513.632 666.421 515.968C667.445 518.304 668.421 520.416 669.349 522.304C670.213 520.288 671.109 518.016 672.037 515.488C672.965 512.96 673.749 510.512 674.389 508.144C674.549 507.568 674.933 507.28 675.541 507.28C675.893 507.28 676.181 507.408 676.405 507.664C676.629 507.888 676.741 508.16 676.741 508.48C676.741 508.544 676.709 508.704 676.645 508.96C676.581 509.184 676.517 509.424 676.453 509.68C675.653 512.496 674.709 515.312 673.621 518.128C672.533 520.944 671.525 523.392 670.597 525.472C670.373 525.952 670.005 526.192 669.493 526.192H669.397ZM698.064 526C697.744 526 697.456 525.888 697.2 525.664C696.976 525.408 696.864 525.12 696.864 524.8V515.2C696.864 513.216 696.48 511.792 695.712 510.928C694.976 510.032 693.968 509.584 692.688 509.584C691.344 509.584 690.064 509.952 688.848 510.688C687.632 511.392 686.512 512.256 685.488 513.28V524.8C685.488 525.12 685.376 525.408 685.152 525.664C684.928 525.888 684.64 526 684.288 526C683.968 526 683.68 525.888 683.424 525.664C683.2 525.408 683.088 525.12 683.088 524.8V500.272C683.088 499.92 683.2 499.632 683.424 499.408C683.68 499.184 683.968 499.072 684.288 499.072C684.64 499.072 684.928 499.184 685.152 499.408C685.376 499.632 685.488 499.92 685.488 500.272V510.112C686.576 509.28 687.712 508.592 688.896 508.048C690.08 507.472 691.344 507.184 692.688 507.184C693.904 507.184 695.008 507.424 696 507.904C696.992 508.384 697.776 509.216 698.352 510.4C698.96 511.552 699.264 513.152 699.264 515.2V524.8C699.264 525.12 699.152 525.408 698.928 525.664C698.704 525.888 698.416 526 698.064 526ZM715.443 526C712.371 526 709.891 525.2 708.003 523.6C706.147 522 705.219 519.744 705.219 516.832C705.219 514.88 705.635 513.184 706.467 511.744C707.299 510.304 708.403 509.184 709.779 508.384C711.187 507.584 712.739 507.184 714.435 507.184C716.131 507.184 717.555 507.52 718.707 508.192C719.859 508.864 720.723 509.696 721.299 510.688C721.907 511.68 722.211 512.656 722.211 513.616C722.211 514.768 721.843 515.76 721.107 516.592C720.403 517.424 719.059 517.84 717.075 517.84H707.667C707.923 519.76 708.755 521.2 710.163 522.16C711.603 523.12 713.363 523.6 715.443 523.6C716.243 523.6 716.963 523.536 717.603 523.408C718.275 523.28 718.787 523.152 719.139 523.024C719.491 522.896 719.715 522.816 719.811 522.784C719.939 522.752 720.035 522.736 720.099 522.736C720.419 522.736 720.691 522.864 720.915 523.12C721.171 523.344 721.299 523.616 721.299 523.936C721.299 524.48 721.043 524.848 720.531 525.04C719.859 525.296 719.075 525.52 718.179 525.712C717.283 525.904 716.371 526 715.443 526ZM714.435 509.584C712.739 509.584 711.267 510.128 710.019 511.216C708.771 512.272 708.003 513.68 707.715 515.44H717.123C718.947 515.44 719.859 514.832 719.859 513.616C719.859 512.624 719.363 511.712 718.371 510.88C717.379 510.016 716.067 509.584 714.435 509.584ZM730.225 526C729.905 526 729.617 525.888 729.361 525.664C729.137 525.408 729.025 525.12 729.025 524.8V508.384C729.025 508.032 729.137 507.744 729.361 507.52C729.617 507.296 729.905 507.184 730.225 507.184C730.577 507.184 730.865 507.296 731.089 507.52C731.313 507.744 731.425 508.032 731.425 508.384V511.216C732.673 509.904 734.001 508.912 735.409 508.24C736.817 507.568 738.177 507.232 739.489 507.232C739.841 507.232 740.113 507.344 740.305 507.568C740.529 507.76 740.641 508.016 740.641 508.336C740.641 509.072 740.289 509.488 739.585 509.584C737.729 509.808 736.161 510.4 734.881 511.36C733.601 512.32 732.449 513.568 731.425 515.104V524.8C731.425 525.12 731.313 525.408 731.089 525.664C730.865 525.888 730.577 526 730.225 526ZM753.412 526C750.34 526 747.86 525.2 745.972 523.6C744.116 522 743.188 519.744 743.188 516.832C743.188 514.88 743.604 513.184 744.436 511.744C745.268 510.304 746.372 509.184 747.748 508.384C749.156 507.584 750.708 507.184 752.404 507.184C754.1 507.184 755.524 507.52 756.676 508.192C757.828 508.864 758.692 509.696 759.268 510.688C759.876 511.68 760.18 512.656 760.18 513.616C760.18 514.768 759.812 515.76 759.076 516.592C758.372 517.424 757.028 517.84 755.044 517.84H745.636C745.892 519.76 746.724 521.2 748.132 522.16C749.572 523.12 751.332 523.6 753.412 523.6C754.212 523.6 754.932 523.536 755.572 523.408C756.244 523.28 756.756 523.152 757.108 523.024C757.46 522.896 757.684 522.816 757.78 522.784C757.908 522.752 758.004 522.736 758.068 522.736C758.388 522.736 758.66 522.864 758.884 523.12C759.14 523.344 759.268 523.616 759.268 523.936C759.268 524.48 759.012 524.848 758.5 525.04C757.828 525.296 757.044 525.52 756.148 525.712C755.252 525.904 754.34 526 753.412 526ZM752.404 509.584C750.708 509.584 749.236 510.128 747.988 511.216C746.74 512.272 745.972 513.68 745.684 515.44H755.092C756.916 515.44 757.828 514.832 757.828 513.616C757.828 512.624 757.332 511.712 756.34 510.88C755.348 510.016 754.036 509.584 752.404 509.584ZM790.134 526C787.19 526 785.094 525.392 783.846 524.176C782.598 522.928 781.974 521.264 781.974 519.184V509.584H778.95C778.63 509.584 778.342 509.472 778.086 509.248C777.862 508.992 777.75 508.704 777.75 508.384C777.75 508.032 777.862 507.744 778.086 507.52C778.342 507.296 778.63 507.184 778.95 507.184H781.974V502.336C781.974 501.984 782.086 501.696 782.31 501.472C782.566 501.248 782.854 501.136 783.174 501.136C783.526 501.136 783.814 501.248 784.038 501.472C784.262 501.696 784.374 501.984 784.374 502.336V507.184H790.758C791.11 507.184 791.398 507.296 791.622 507.52C791.846 507.744 791.958 508.032 791.958 508.384C791.958 508.704 791.846 508.992 791.622 509.248C791.398 509.472 791.11 509.584 790.758 509.584H784.374V519.184C784.374 522.128 786.294 523.6 790.134 523.6C790.486 523.6 790.774 523.728 790.998 523.984C791.222 524.208 791.334 524.48 791.334 524.8C791.334 525.12 791.206 525.408 790.95 525.664C790.726 525.888 790.454 526 790.134 526ZM805.098 506.992C807.05 506.992 808.73 507.44 810.138 508.336C811.578 509.2 812.682 510.384 813.45 511.888C814.25 513.36 814.65 515.008 814.65 516.832C814.65 518.592 814.25 520.176 813.45 521.584C812.682 522.992 811.578 524.112 810.138 524.944C808.73 525.776 807.05 526.192 805.098 526.192C803.178 526.192 801.498 525.776 800.058 524.944C798.618 524.112 797.498 522.976 796.698 521.536C795.93 520.096 795.546 518.496 795.546 516.736C795.546 514.944 795.93 513.312 796.698 511.84C797.466 510.368 798.57 509.2 800.01 508.336C801.45 507.44 803.146 506.992 805.098 506.992ZM805.098 509.392C803.626 509.392 802.346 509.728 801.258 510.4C800.202 511.072 799.386 511.968 798.81 513.088C798.234 514.176 797.946 515.392 797.946 516.736C797.946 518.72 798.586 520.4 799.866 521.776C801.178 523.12 802.922 523.792 805.098 523.792C807.274 523.792 809.002 523.12 810.282 521.776C811.594 520.432 812.25 518.784 812.25 516.832C812.25 515.456 811.962 514.208 811.386 513.088C810.81 511.968 809.978 511.072 808.89 510.4C807.834 509.728 806.57 509.392 805.098 509.392ZM836.116 526C835.796 526 835.508 525.888 835.252 525.664C835.028 525.408 834.916 525.12 834.916 524.8V508.384C834.916 508.032 835.028 507.744 835.252 507.52C835.508 507.296 835.796 507.184 836.116 507.184C836.468 507.184 836.756 507.296 836.98 507.52C837.204 507.744 837.316 508.032 837.316 508.384V511.216C838.564 509.904 839.892 508.912 841.3 508.24C842.708 507.568 844.068 507.232 845.38 507.232C845.732 507.232 846.004 507.344 846.196 507.568C846.42 507.76 846.532 508.016 846.532 508.336C846.532 509.072 846.18 509.488 845.476 509.584C843.62 509.808 842.052 510.4 840.772 511.36C839.492 512.32 838.34 513.568 837.316 515.104V524.8C837.316 525.12 837.204 525.408 836.98 525.664C836.756 525.888 836.468 526 836.116 526ZM859.303 526C856.231 526 853.751 525.2 851.863 523.6C850.007 522 849.079 519.744 849.079 516.832C849.079 514.88 849.495 513.184 850.327 511.744C851.159 510.304 852.263 509.184 853.639 508.384C855.047 507.584 856.599 507.184 858.295 507.184C859.991 507.184 861.415 507.52 862.567 508.192C863.719 508.864 864.583 509.696 865.159 510.688C865.767 511.68 866.071 512.656 866.071 513.616C866.071 514.768 865.703 515.76 864.967 516.592C864.263 517.424 862.919 517.84 860.935 517.84H851.527C851.783 519.76 852.615 521.2 854.023 522.16C855.463 523.12 857.223 523.6 859.303 523.6C860.103 523.6 860.823 523.536 861.463 523.408C862.135 523.28 862.647 523.152 862.999 523.024C863.351 522.896 863.575 522.816 863.671 522.784C863.799 522.752 863.895 522.736 863.959 522.736C864.279 522.736 864.551 522.864 864.775 523.12C865.031 523.344 865.159 523.616 865.159 523.936C865.159 524.48 864.903 524.848 864.391 525.04C863.719 525.296 862.935 525.52 862.039 525.712C861.143 525.904 860.231 526 859.303 526ZM858.295 509.584C856.599 509.584 855.127 510.128 853.879 511.216C852.631 512.272 851.863 513.68 851.575 515.44H860.983C862.807 515.44 863.719 514.832 863.719 513.616C863.719 512.624 863.223 511.712 862.231 510.88C861.239 510.016 859.927 509.584 858.295 509.584ZM883.456 509.968C883.136 509.872 882.576 509.76 881.776 509.632C881.008 509.504 880.16 509.44 879.232 509.44C877.664 509.44 876.448 509.712 875.584 510.256C874.72 510.8 874.288 511.472 874.288 512.272C874.288 512.976 874.64 513.552 875.344 514C876.08 514.416 877.28 514.704 878.944 514.864L880.864 515.056C882.496 515.216 883.776 515.584 884.704 516.16C885.632 516.736 886.288 517.424 886.672 518.224C887.056 518.992 887.248 519.808 887.248 520.672C887.248 521.536 887.024 522.4 886.576 523.264C886.128 524.096 885.344 524.8 884.224 525.376C883.136 525.92 881.568 526.192 879.52 526.192C878.336 526.192 877.12 526.08 875.872 525.856C874.624 525.6 873.44 525.232 872.32 524.752C871.84 524.528 871.6 524.144 871.6 523.6C871.6 523.312 871.728 523.056 871.984 522.832C872.24 522.576 872.528 522.448 872.848 522.448C872.912 522.448 873.024 522.48 873.184 522.544C873.344 522.608 873.632 522.72 874.048 522.88C874.656 523.104 875.456 523.312 876.448 523.504C877.44 523.696 878.464 523.792 879.52 523.792C881.248 523.792 882.56 523.504 883.456 522.928C884.384 522.32 884.848 521.568 884.848 520.672C884.848 519.84 884.528 519.136 883.888 518.56C883.248 517.952 882.176 517.584 880.672 517.456L878.752 517.264C876.864 517.072 875.424 516.72 874.432 516.208C873.44 515.664 872.768 515.04 872.416 514.336C872.064 513.632 871.888 512.928 871.888 512.224C871.888 511.424 872.096 510.64 872.512 509.872C872.96 509.072 873.712 508.4 874.768 507.856C875.856 507.312 877.344 507.04 879.232 507.04C880.32 507.04 881.328 507.12 882.256 507.28C883.216 507.408 884.064 507.584 884.8 507.808C885.056 507.84 885.264 507.984 885.424 508.24C885.584 508.464 885.664 508.704 885.664 508.96C885.664 509.312 885.536 509.6 885.28 509.824C885.056 510.048 884.784 510.16 884.464 510.16C884.272 510.16 883.936 510.096 883.456 509.968ZM903.337 526C900.393 526 898.297 525.392 897.049 524.176C895.801 522.928 895.177 521.264 895.177 519.184V509.584H892.153C891.833 509.584 891.545 509.472 891.289 509.248C891.065 508.992 890.953 508.704 890.953 508.384C890.953 508.032 891.065 507.744 891.289 507.52C891.545 507.296 891.833 507.184 892.153 507.184H895.177V502.336C895.177 501.984 895.289 501.696 895.513 501.472C895.769 501.248 896.057 501.136 896.377 501.136C896.729 501.136 897.017 501.248 897.241 501.472C897.465 501.696 897.577 501.984 897.577 502.336V507.184H903.961C904.313 507.184 904.601 507.296 904.825 507.52C905.049 507.744 905.161 508.032 905.161 508.384C905.161 508.704 905.049 508.992 904.825 509.248C904.601 509.472 904.313 509.584 903.961 509.584H897.577V519.184C897.577 522.128 899.497 523.6 903.337 523.6C903.689 523.6 903.977 523.728 904.201 523.984C904.425 524.208 904.537 524.48 904.537 524.8C904.537 525.12 904.409 525.408 904.153 525.664C903.929 525.888 903.657 526 903.337 526ZM924.344 525.568C923.64 524.832 923.096 523.904 922.712 522.784C921.624 523.808 920.424 524.608 919.112 525.184C917.832 525.728 916.44 526 914.936 526C913.464 526 912.296 525.728 911.432 525.184C910.568 524.64 909.96 523.968 909.608 523.168C909.256 522.368 909.08 521.616 909.08 520.912C909.08 520.144 909.208 519.408 909.464 518.704C909.752 517.968 910.184 517.328 910.76 516.784C911.56 516.048 912.632 515.424 913.976 514.912C915.32 514.4 916.968 514.144 918.92 514.144C919.944 514.144 921.032 514.192 922.184 514.288C922.056 512.848 921.576 511.712 920.744 510.88C919.912 510.016 918.664 509.584 917 509.584C916.36 509.584 915.704 509.648 915.032 509.776C914.36 509.872 913.848 509.984 913.496 510.112C913.08 510.272 912.776 510.352 912.584 510.352C912.264 510.352 911.976 510.24 911.72 510.016C911.464 509.76 911.336 509.488 911.336 509.2C911.336 508.592 911.608 508.192 912.152 508C912.696 507.84 913.416 507.664 914.312 507.472C915.24 507.28 916.136 507.184 917 507.184C919.624 507.184 921.544 507.904 922.76 509.344C924.008 510.784 924.632 512.656 924.632 514.96V519.328C924.632 520.416 924.744 521.328 924.968 522.064C925.224 522.768 925.592 523.392 926.072 523.936C926.296 524.16 926.408 524.432 926.408 524.752C926.408 525.072 926.28 525.36 926.024 525.616C925.8 525.84 925.528 525.952 925.208 525.952C924.888 525.952 924.6 525.824 924.344 525.568ZM914.936 523.6C916.312 523.6 917.624 523.296 918.872 522.688C920.12 522.048 921.24 521.088 922.232 519.808V516.688C921.048 516.592 919.944 516.544 918.92 516.544C915.88 516.544 913.736 517.168 912.488 518.416C912.104 518.8 911.832 519.2 911.672 519.616C911.544 520.032 911.48 520.464 911.48 520.912C911.48 521.552 911.752 522.16 912.296 522.736C912.872 523.312 913.752 523.6 914.936 523.6ZM933.569 526C933.249 526 932.961 525.888 932.705 525.664C932.481 525.408 932.369 525.12 932.369 524.8V508.384C932.369 508.032 932.481 507.744 932.705 507.52C932.961 507.296 933.249 507.184 933.569 507.184C933.921 507.184 934.209 507.296 934.433 507.52C934.657 507.744 934.769 508.032 934.769 508.384V511.216C936.017 509.904 937.345 508.912 938.753 508.24C940.161 507.568 941.521 507.232 942.833 507.232C943.185 507.232 943.457 507.344 943.649 507.568C943.873 507.76 943.985 508.016 943.985 508.336C943.985 509.072 943.633 509.488 942.929 509.584C941.073 509.808 939.505 510.4 938.225 511.36C936.945 512.32 935.793 513.568 934.769 515.104V524.8C934.769 525.12 934.657 525.408 934.433 525.664C934.209 525.888 933.921 526 933.569 526ZM959.212 526C956.268 526 954.172 525.392 952.924 524.176C951.676 522.928 951.052 521.264 951.052 519.184V509.584H948.028C947.708 509.584 947.42 509.472 947.164 509.248C946.94 508.992 946.828 508.704 946.828 508.384C946.828 508.032 946.94 507.744 947.164 507.52C947.42 507.296 947.708 507.184 948.028 507.184H951.052V502.336C951.052 501.984 951.164 501.696 951.388 501.472C951.644 501.248 951.932 501.136 952.252 501.136C952.604 501.136 952.892 501.248 953.116 501.472C953.34 501.696 953.452 501.984 953.452 502.336V507.184H959.836C960.188 507.184 960.476 507.296 960.7 507.52C960.924 507.744 961.036 508.032 961.036 508.384C961.036 508.704 960.924 508.992 960.7 509.248C960.476 509.472 960.188 509.584 959.836 509.584H953.452V519.184C953.452 522.128 955.372 523.6 959.212 523.6C959.564 523.6 959.852 523.728 960.076 523.984C960.3 524.208 960.412 524.48 960.412 524.8C960.412 525.12 960.284 525.408 960.028 525.664C959.804 525.888 959.532 526 959.212 526Z" fill="white"/>
</g>
</svg>
